<svg width="207" height="59" viewBox="0 0 207 59" fill="none" xmlns="http://www.w3.org/2000/svg">
<path d="M29 0.504311C25.362 0.567049 21.7665 1.31399 18.4021 2.70748C14.8837 4.16493 11.6869 6.30098 8.99386 8.99384C8.99385 8.99384 8.99384 8.99385 8.99384 8.99386M29 0.504311L2.24554 18.2108C3.72813 14.6317 5.90101 11.3797 8.6403 8.6403L8.99384 8.99386M29 0.504311C29.1666 0.501438 29.3333 0.5 29.5 0.5V14.25C29.3332 14.25 29.1665 14.2527 29 14.2582M29 0.504311V0.00423783C25.2963 0.0670253 21.6358 0.826929 18.2108 2.24554L29.5 58.5M29 0.504311V14.2582M29 0.504311L23.6641 43.5891C21.8138 42.8228 20.1327 41.6995 18.7166 40.2834C17.3005 38.8673 16.1773 37.1862 15.4109 35.336M8.99384 8.99386C6.30098 11.6869 4.16493 14.8837 2.70748 18.4021M8.99384 8.99386L2.70748 18.4021M2.70748 18.4021C1.25019 21.9206 0.5 25.6917 0.5 29.5C0.5 33.3083 1.25019 37.0794 2.70748 40.5979C4.16493 44.1163 6.30098 47.3131 8.99384 50.0061M2.70748 18.4021L8.6403 50.3597M8.99384 50.0061L8.6403 50.3597M8.99384 50.0061C8.99384 50.0061 8.99385 50.0062 8.99386 50.0062L8.6403 50.3597M8.99384 50.0061C11.6869 52.699 14.8837 54.8351 18.4021 56.2925C21.7665 57.686 25.362 58.433 29 58.4957M8.6403 50.3597C11.3797 53.099 14.6317 55.2719 18.2108 56.7545C21.6358 58.1731 25.2963 58.933 29 58.9958V58.4957M29 58.4957V44.7418M29 58.4957C29.1666 58.4986 29.3333 58.5 29.5 58.5M29.5 58.5V44.75C29.3332 44.75 29.1665 44.7473 29 44.7418M29.5 58.5L29 44.7418M29 44.7418V44.25H29.5C27.5629 44.25 25.6449 43.8685 23.8554 43.1271C22.0658 42.3859 20.4398 41.2995 19.0702 39.9298C17.7005 38.5602 16.6141 36.9342 15.8729 35.1446M15.8729 35.1446C15.1315 33.3551 14.75 31.4371 14.75 29.5C14.75 27.5629 15.1315 25.6449 15.8729 23.8554C16.6141 22.0658 17.7005 20.4398 19.0702 19.0702C20.4398 17.7005 22.0658 16.6141 23.8554 15.8729C25.6449 15.1315 27.5629 14.75 29.5 14.75H29V14.2582M15.8729 35.1446L15.4109 35.3359C15.4109 35.336 15.4109 35.336 15.4109 35.336M15.8729 35.1446L15.4109 35.336M29 14.2582C27.1679 14.3183 25.3602 14.7083 23.6641 15.4109M23.6641 15.4109C21.8138 16.1772 20.1327 17.3005 18.7166 18.7166C17.3005 20.1327 16.1772 21.8138 15.4109 23.6641M23.6641 15.4109L23.8512 15.8627L23.664 15.4109C23.664 15.4109 23.664 15.4109 23.6641 15.4109ZM15.4109 23.6641C14.6444 25.5143 14.25 27.4973 14.25 29.5C14.25 31.5027 14.6444 33.4857 15.4109 35.336M15.4109 23.6641L15.8627 23.8512L15.4109 23.664C15.4109 23.664 15.4109 23.664 15.4109 23.6641Z" fill="#0F52FF" stroke="black"/>
<path d="M38.8333 29.5C38.8333 34.6546 34.6546 38.8333 29.5 38.8333C24.3453 38.8333 20.1667 34.6546 20.1667 29.5C20.1667 24.3453 24.3453 20.1667 29.5 20.1667C34.6546 20.1667 38.8333 24.3453 38.8333 29.5Z" fill="#0F52FF" stroke="black"/>
<path d="M0.504311 30H14.2582C14.3183 31.8322 14.7083 33.6399 15.4109 35.336C16.1773 37.1862 17.3005 38.8673 18.7166 40.2834C20.1327 41.6995 21.8138 42.8228 23.6641 43.5891C25.5143 44.3556 27.4973 44.75 29.5 44.75C31.5027 44.75 33.4857 44.3556 35.336 43.5891C37.1862 42.8227 38.8673 41.6995 40.2834 40.2834C41.6995 38.8673 42.8227 37.1862 43.5891 35.336C44.2917 33.6399 44.6817 31.8322 44.7418 30H58.4957C58.433 33.638 57.686 37.2335 56.2925 40.5979C54.8351 44.1163 52.699 47.3131 50.0061 50.0062C47.3131 52.699 44.1163 54.8351 40.5979 56.2925C37.0794 57.7498 33.3083 58.5 29.5 58.5C25.6917 58.5 21.9206 57.7498 18.4021 56.2925C14.8837 54.8351 11.6869 52.699 8.99386 50.0062C6.30099 47.3131 4.16494 44.1163 2.70748 40.5979C1.31399 37.2335 0.567049 33.638 0.504311 30Z" fill="#5BD0F4" stroke="black"/>
<path d="M29.5001 20.1667C31.9755 20.1667 34.3494 21.15 36.0998 22.9004C37.7318 24.5326 38.6971 26.7069 38.82 29.0001H29.5001H20.1801C20.303 26.7069 21.2682 24.5326 22.9004 22.9004C24.6508 21.15 27.0248 20.1667 29.5001 20.1667Z" fill="#5BD0F4" stroke="black"/>
<path d="M71.2427 38.2714V18.9164H73.9066V38.2714H71.2427Z" fill="#0F52FF" stroke="black"/>
<path d="M84.3597 38.679C82.3214 38.679 80.5618 37.9919 79.3143 36.7779C78.0692 35.5663 77.2992 33.7959 77.2992 31.5605C77.2992 29.325 78.0692 27.5546 79.3143 26.343C80.5618 25.129 82.3214 24.4419 84.3597 24.4419C86.3979 24.4419 88.1575 25.129 89.405 26.343C90.6502 27.5546 91.4201 29.325 91.4201 31.5605C91.4201 33.7959 90.6502 35.5663 89.405 36.7779C88.1575 37.9919 86.3979 38.679 84.3597 38.679ZM84.3597 26.6405C83.1007 26.6405 81.9871 27.0957 81.1917 27.9664C80.3995 28.8336 79.9631 30.0683 79.9631 31.5605C79.9631 33.0526 80.3995 34.2873 81.1917 35.1545C81.9871 36.0252 83.1007 36.4804 84.3597 36.4804C85.6186 36.4804 86.7323 36.0252 87.5276 35.1545C88.3198 34.2873 88.7562 33.0526 88.7562 31.5605C88.7562 30.0683 88.3198 28.8336 87.5276 27.9664C86.7323 27.0957 85.6186 26.6405 84.3597 26.6405Z" fill="#0F52FF" stroke="black"/>
<path d="M105.513 26.2971V24.849H108.119V37.9286C108.119 40.1412 107.404 41.7606 106.2 42.833C104.987 43.9132 103.215 44.4948 101 44.4948C97.0478 44.4948 95.019 42.5373 94.1975 40.6672L96.5487 39.6475C96.833 40.3426 97.2608 40.9726 97.8726 41.4574C98.6402 42.0656 99.6564 42.4124 100.942 42.4124C102.219 42.4124 103.361 42.0692 104.187 41.2865C105.017 40.4993 105.455 39.3352 105.455 37.8414V36.4456V35.9456H104.955H104.664H104.408L104.258 36.154C103.522 37.1788 102.268 38.2138 99.9533 38.2138C96.8307 38.2138 93.9397 35.5634 93.9397 31.3278C93.9397 27.0922 96.8307 24.4419 99.9533 24.4419C102.268 24.4419 103.52 25.4475 104.312 26.5833L104.461 26.7971H104.722H105.013H105.513V26.2971ZM96.6036 31.3278C96.6036 32.7456 97.0623 33.9376 97.8698 34.7783C98.6778 35.6196 99.801 36.0733 101.058 36.0733C102.316 36.0733 103.439 35.6196 104.247 34.7783C105.054 33.9376 105.513 32.7456 105.513 31.3278C105.513 29.91 105.054 28.7181 104.247 27.8773C103.439 27.036 102.316 26.5823 101.058 26.5823C99.801 26.5823 98.6778 27.036 97.8698 27.8773C97.0623 28.7181 96.6036 29.91 96.6036 31.3278Z" fill="#0F52FF" stroke="black"/>
<path d="M118.55 38.679C116.511 38.679 114.752 37.9919 113.504 36.7779C112.259 35.5663 111.489 33.7959 111.489 31.5605C111.489 29.325 112.259 27.5546 113.504 26.343C114.752 25.129 116.511 24.4419 118.55 24.4419C120.588 24.4419 122.348 25.129 123.595 26.343C124.84 27.5546 125.61 29.325 125.61 31.5605C125.61 33.7959 124.84 35.5663 123.595 36.7779C122.348 37.9919 120.588 38.679 118.55 38.679ZM118.55 26.6405C117.291 26.6405 116.177 27.0957 115.382 27.9664C114.59 28.8336 114.153 30.0683 114.153 31.5605C114.153 33.0526 114.59 34.2873 115.382 35.1545C116.177 36.0252 117.291 36.4804 118.55 36.4804C119.809 36.4804 120.922 36.0252 121.718 35.1545C122.51 34.2873 122.946 33.0526 122.946 31.5605C122.946 30.0683 122.51 28.8336 121.718 27.9664C120.922 27.0957 119.809 26.6405 118.55 26.6405Z" fill="#0F52FF" stroke="black"/>
<path d="M131.575 22.1618C130.37 22.1618 129.486 21.3417 129.486 20.1611C129.486 18.9806 130.37 18.1603 131.575 18.1603C132.779 18.1603 133.663 18.9804 133.663 20.1611C133.663 21.3419 132.779 22.1618 131.575 22.1618ZM130.243 38.2713V24.8484H132.906V38.2713H130.243Z" fill="#5BD0F4" stroke="black"/>
<path d="M139.836 36.9109V44.0877H137.171V24.849H139.777V26.2973V26.7973H140.277H140.568H140.829L140.978 26.5832C141.77 25.4476 143.021 24.4419 145.337 24.4419C148.449 24.4419 151.351 27.0813 151.351 31.5605C151.351 36.0396 148.449 38.679 145.337 38.679C143.017 38.679 141.767 37.6691 141.035 36.6242L140.886 36.4109H140.626H140.336H139.836V36.9109ZM139.777 31.5605C139.777 33.0838 140.229 34.3335 141.036 35.2075C141.846 36.0839 142.973 36.5386 144.231 36.5386C145.49 36.5386 146.617 36.0839 147.427 35.2074C148.234 34.3334 148.686 33.0837 148.686 31.5605C148.686 30.0372 148.234 28.7875 147.427 27.9135C146.617 27.037 145.49 26.5823 144.231 26.5823C142.973 26.5823 141.846 27.037 141.036 27.9134C140.229 28.7874 139.777 30.0371 139.777 31.5605Z" fill="#5BD0F4" stroke="black"/>
<path d="M162.762 28.2575C162.544 27.6394 162.206 27.1576 161.743 26.8175C161.164 26.3921 160.451 26.2334 159.688 26.2334C158.934 26.2334 158.284 26.381 157.807 26.7052C157.308 27.0447 157.035 27.5553 157.035 28.1583C157.035 28.4718 157.103 28.7638 157.25 29.0264C157.397 29.2874 157.608 29.4924 157.857 29.6556C158.337 29.9714 159.003 30.1597 159.767 30.3067L159.767 30.3067L160.522 30.4518C160.522 30.4519 160.523 30.452 160.523 30.452C162.156 30.7729 163.49 31.123 164.417 31.7253C164.87 32.0198 165.214 32.3676 165.447 32.7936C165.68 33.2197 165.818 33.7523 165.818 34.4393C165.818 35.8047 165.287 36.8392 164.363 37.5462C163.423 38.2658 162.031 38.679 160.27 38.679C158.449 38.679 156.979 38.2725 155.918 37.5453C154.983 36.9048 154.34 35.9985 154.049 34.8334L156.466 34.2084C156.716 35.086 157.16 35.7383 157.769 36.1812C158.483 36.7006 159.363 36.8875 160.27 36.8875C161.176 36.8875 161.916 36.693 162.444 36.3136C162.987 35.9228 163.269 35.3583 163.269 34.7301C163.269 34.421 163.201 34.1291 163.045 33.8646C162.89 33.6028 162.668 33.3968 162.403 33.2306C161.89 32.9086 161.156 32.6992 160.248 32.5235L160.248 32.5233L159.491 32.3781C159.491 32.3781 159.491 32.378 159.491 32.378C157.994 32.0902 156.731 31.6988 155.848 31.0727C154.998 30.4703 154.489 29.6444 154.489 28.391C154.489 27.1146 154.988 26.1529 155.854 25.496C156.736 24.8263 158.042 24.4419 159.688 24.4419C162.5 24.4419 164.335 25.7111 165.091 27.5426L162.762 28.2575Z" fill="#5BD0F4" stroke="black"/>
<path d="M169.317 32.9556V24.8484H171.982V32.7812C171.982 33.9504 172.278 34.9089 172.922 35.5748C173.568 36.2436 174.487 36.538 175.564 36.538C176.809 36.538 177.846 36.096 178.562 35.2389C179.267 34.3942 179.612 33.205 179.612 31.7925V24.8484H182.275V38.2714H179.669V36.6195V36.1195H179.169H178.879H178.564L178.428 36.4046C178.17 36.9461 177.777 37.4619 177.164 37.8459C176.549 38.2303 175.679 38.504 174.431 38.504C172.873 38.504 171.607 37.9365 170.727 36.9822C169.844 36.0242 169.317 34.6399 169.317 32.9556Z" fill="#5BD0F4" stroke="black"/>
<path d="M206.405 29.292V38.2716H203.74V29.4665C203.74 28.5908 203.495 27.8515 202.976 27.3319C202.457 26.8125 201.732 26.582 200.914 26.582C199.955 26.582 199.149 26.901 198.592 27.5585C198.046 28.203 197.797 29.1052 197.797 30.1643V38.2716H195.133V29.4665C195.133 28.5908 194.888 27.8515 194.369 27.3319C193.849 26.8125 193.125 26.582 192.306 26.582C191.348 26.582 190.542 26.901 189.985 27.5585C189.439 28.203 189.19 29.1052 189.19 30.1643V38.2716H186.525V24.8486H189.131V26.1515V26.6515H189.631H189.923H190.232L190.37 26.3747C190.833 25.447 191.789 24.616 193.702 24.616C194.676 24.616 195.402 24.8251 195.951 25.1633C196.5 25.5011 196.907 25.989 197.208 26.604L197.345 26.8841H197.657H197.948H198.239L198.383 26.6322C198.707 26.0639 199.101 25.57 199.66 25.2138C200.216 24.8594 200.977 24.616 202.077 24.616C203.31 24.616 204.382 25.0035 205.143 25.752C205.902 26.4975 206.405 27.6528 206.405 29.292Z" fill="#5BD0F4" stroke="black"/>
</svg>
