<svg width="218" height="59" viewBox="0 0 218 59" fill="none" xmlns="http://www.w3.org/2000/svg">
<path d="M12.575 45.981L20.7424 31.8735L25.8674 40.751L26.0118 41.0012L26.3007 41.001L58.2362 40.9838L49.5115 55.9435L18.2461 55.8037L12.575 45.981Z" fill="#FFAD64" stroke="black"/>
<path d="M42.4161 40.0367L47.5416 31.1594L47.6861 30.9093L47.5415 30.6592L31.5589 3.01081L48.8768 3.08679L64.3882 30.2333L58.7172 40.0559L42.4161 40.0367Z" fill="#ADD4D3" stroke="black"/>
<path d="M30.5041 2.95129L38.638 17.0783L28.3871 17.0779L28.0983 17.0779L27.954 17.3281L12.0012 44.9937L3.40799 29.958L19.162 2.95129H30.5041Z" fill="#FB8351" stroke="black"/>
<path d="M17.754 0.5H31.9218L31.9566 0.560391L32.2441 0.561652L50.303 0.640882L67.2154 30.2391L62.8618 37.7795L62.4288 38.5295H62.5055L50.9159 58.4016L16.8268 58.2491L12.4378 50.6469L12.0053 49.8978L11.9928 49.9194L0.57736 29.9457L17.754 0.5ZM34.6434 5.22688L42.8788 19.5302H42.7852L43.2189 20.2804L49.3625 30.9083L45.3896 37.7889L44.9563 38.5394L45.8229 38.5389L57.6317 38.5327L57.9202 38.5325L58.0644 38.2827L62.5705 30.4777L62.7141 30.229L62.5716 29.9797L48.1754 4.78485L48.0321 4.53418L47.7434 4.53292L35.0789 4.4774L34.2096 4.47358L34.6434 5.22688ZM29.6767 4.65295L29.5323 4.40318H29.2438H20.2831H19.9959L19.8512 4.65124L5.23001 29.7162L5.08454 29.9656L5.2278 30.2162L11.5731 41.3187L12.0044 42.0734L12.4399 41.3211L13.3954 39.6705L13.3959 39.6697L27.26 15.6264L35.1536 15.6267L36.0202 15.6267L35.5865 14.8765L29.6767 4.65295ZM23.1288 30.6045L22.9847 30.8544L23.1289 31.1043L27.2823 38.2988L27.4268 38.5489L27.7156 38.5488L40.1593 38.5421L40.4477 38.5419L40.592 38.2921L44.7102 31.1595L44.8546 30.9094L44.71 30.6593L38.421 19.7798L38.2766 19.53L37.9882 19.53L29.8037 19.5297L29.5149 19.5297L29.3706 19.78L23.1288 30.6045ZM14.4007 45.7408L14.2566 45.9907L14.4008 46.2406L18.9426 54.1072L19.0862 54.3559L19.3734 54.3572L48.391 54.487L48.6797 54.4883L48.8251 54.2389L55.2315 43.2542L55.6694 42.5034L54.8002 42.5023L38.1728 42.4827L38.1938 42.4464L37.3268 42.4468L25.1738 42.4534L21.1728 35.5229L20.7404 34.7739L20.3071 35.5224L16.7758 41.622L16.7754 41.6228L14.4007 45.7408Z" fill="#333237" stroke="black"/>
<path d="M83.1967 38.8959V49.8734H82.5712V38.8959V38.3959H82.0712H78.3291V38.1074H87.4389V38.3959H83.6967H83.1967V38.8959Z" fill="white" stroke="black"/>
<path d="M89.0371 49.0038L89.0371 49.0038C88.3383 48.3273 87.9405 47.2404 87.9405 45.6362C87.9405 44.2058 88.2789 43.1499 88.8953 42.4077C89.4951 41.688 90.4711 41.2795 91.9403 41.2795C92.8068 41.2795 93.473 41.4409 93.9698 41.728L93.9697 41.7281L93.9812 41.7344C94.5022 42.0175 94.8758 42.4052 95.1188 42.9022L95.1186 42.9023L95.1248 42.9142C95.3868 43.4155 95.5238 43.9952 95.5238 44.6649V45.9292H89.066H88.5276L88.5674 46.4661C88.6234 47.2235 88.7875 47.8726 89.0955 48.3754L89.0954 48.3755L89.1017 48.3853C89.4329 48.8985 89.917 49.2594 90.5225 49.4768L90.5297 49.4794L90.537 49.4817C91.1348 49.676 91.8868 49.7638 92.7728 49.7638C93.5321 49.7638 94.2517 49.6672 94.9291 49.4711V49.6926C94.6349 49.794 94.31 49.8773 93.9532 49.9413L93.951 49.9417C93.481 50.0283 92.983 50.0722 92.4557 50.0722C90.8491 50.0722 89.7417 49.686 89.0371 49.0038ZM88.566 45.2597V45.7597H89.066H94.5767H95.0767V45.2597V44.4865C95.0767 43.6348 94.8482 42.9047 94.3213 42.3744C93.7867 41.8086 92.9596 41.5879 91.9799 41.5879C90.8051 41.5879 89.8387 41.8605 89.2852 42.5746L89.2852 42.5746C88.7782 43.2287 88.566 44.1517 88.566 45.2597Z" fill="white" stroke="black"/>
<path d="M99.6916 42.3611L99.6916 42.361C100.477 41.6569 101.556 41.2795 102.985 41.2795C103.585 41.2795 104.061 41.3245 104.421 41.4061L104.429 41.4078L104.437 41.4093C104.704 41.461 104.965 41.5379 105.221 41.6403V41.8694C104.621 41.6803 103.974 41.5879 103.283 41.5879C102.046 41.5879 101.014 41.8831 100.26 42.5423C99.4663 43.2215 99.1352 44.3166 99.1352 45.6759C99.1352 46.9788 99.4245 48.0426 100.106 48.7567L100.106 48.7567L100.11 48.7608C100.803 49.4705 101.886 49.7638 103.223 49.7638C103.932 49.7638 104.605 49.6668 105.241 49.4703V49.7125C104.956 49.8104 104.653 49.8865 104.33 49.9403L104.322 49.9416L104.315 49.9432C103.891 50.0279 103.402 50.0722 102.847 50.0722C101.289 50.0722 100.23 49.6712 99.5653 48.963C98.8836 48.2238 98.5097 47.1515 98.5097 45.6759C98.5097 44.1115 98.9333 43.0412 99.6916 42.3611Z" fill="white" stroke="black"/>
<path d="M108.688 43.3362V49.8734H108.063V37.5126H108.688V41.9883V43.0433L109.505 42.3753C109.896 42.0557 110.357 41.7907 110.893 41.5832C111.42 41.3844 112.045 41.279 112.776 41.279C113.839 41.279 114.543 41.5385 114.984 41.9693L114.984 41.9694C115.417 42.3923 115.686 43.1071 115.686 44.2282V49.8734H115.061V44.2878C115.061 43.4221 114.87 42.6708 114.338 42.2096C113.842 41.7554 113.093 41.5874 112.221 41.5874C111.617 41.5874 111.004 41.7232 110.386 41.9818C109.779 42.2279 109.258 42.5596 108.835 42.9826L108.688 43.129V43.3362Z" fill="white" stroke="black"/>
<path d="M119.793 49.2965L119.793 49.2966C120.475 49.7968 121.417 50.0721 122.669 50.0721C123.589 50.0721 124.382 49.946 125.058 49.7047L125.058 49.7047C125.718 49.4688 126.241 49.1034 126.642 48.6111L126.989 48.1842L127.381 48.571L128.631 49.8059L128.883 49.5795L127.467 48.1484L127.189 47.8666L127.4 47.5309C127.59 47.2269 127.744 46.8558 127.852 46.4104C127.944 46.0308 127.998 45.6423 128.013 45.244H127.725C127.704 45.9504 127.584 46.5725 127.346 47.0932L127.043 47.7533L126.534 47.2353L123.244 43.8852L122.831 43.465L123.313 43.126C124.001 42.6414 124.508 42.1782 124.852 41.7398L124.852 41.7393C125.157 41.3514 125.321 40.8636 125.321 40.2442C125.321 39.5 125.091 38.9516 124.663 38.5448L119.793 49.2965ZM119.793 49.2965C119.127 48.8086 118.808 48.1783 118.808 47.3606C118.808 46.5744 119.047 45.9185 119.52 45.3667L119.52 45.3667M119.793 49.2965L119.52 45.3667M124.007 43.2355C124.526 42.8355 124.939 42.4397 125.245 42.0481C125.629 41.5591 125.821 40.9578 125.821 40.2442C125.821 39.3851 125.549 38.6979 125.008 38.1825C124.466 37.6672 123.706 37.4095 122.728 37.4095L124.007 43.2355ZM124.007 43.2355L123.957 43.1845L123.6 43.5349M124.007 43.2355L123.6 43.5349M123.6 43.5349L123.888 43.9438C123.911 43.9279 123.933 43.9121 123.955 43.8962M123.6 43.5349L123.955 43.8962M123.955 43.8962L126.51 46.4971C126.487 46.5598 126.463 46.6196 126.436 46.6766L126.891 46.8849L127.248 46.5346L127.076 46.3596C127.177 45.9731 127.228 45.5271 127.228 45.0215L123.955 43.8962ZM119.52 45.3667C120.024 44.779 120.728 44.2407 121.651 43.7603L122.256 43.4455M119.52 45.3667L122.256 43.4455M122.256 43.4455L121.773 42.9632M122.256 43.4455L121.773 42.9632M121.773 42.9632C121.268 42.4579 120.845 41.9898 120.503 41.5588C120.224 41.2073 120.076 40.7782 120.076 40.2442C120.076 39.5787 120.298 39.0401 120.743 38.5957L120.743 38.5956M121.773 42.9632L120.743 38.5956M120.743 38.5956C121.18 38.1586 121.818 37.9095 122.728 37.9095M120.743 38.5956L122.728 37.9095M122.728 37.9095C123.619 37.9095 124.24 38.1424 124.663 38.5447L122.728 37.9095ZM122.245 43.1046L122.524 43.3695L122.852 43.1674C123.493 42.7721 124.004 42.3811 124.364 41.9908L124.364 41.9908L124.371 41.9838C124.78 41.523 124.973 40.9503 124.973 40.3037C124.973 39.7106 124.807 39.1817 124.426 38.7772C124.025 38.3232 123.411 38.1584 122.728 38.1584C122.021 38.1584 121.395 38.335 120.972 38.7962L120.972 38.7961L120.964 38.8049C120.599 39.2223 120.424 39.7328 120.424 40.3037C120.424 40.8521 120.616 41.3514 120.973 41.789L120.973 41.7891L120.98 41.7975C121.299 42.1727 121.723 42.609 122.245 43.1046ZM124.823 49.5273L124.823 49.5274L124.828 49.525C125.456 49.256 125.989 48.8579 126.424 48.3342L126.712 47.9873L126.396 47.6652L122.768 43.9582L122.522 43.7061L122.201 43.8539C121.31 44.2654 120.604 44.7289 120.119 45.259L120.119 45.2595C119.612 45.8148 119.374 46.5162 119.374 47.3211C119.374 48.1591 119.708 48.8435 120.387 49.3015L120.387 49.3016L120.394 49.3063C121.024 49.7154 121.793 49.9024 122.669 49.9024C123.482 49.9024 124.205 49.7836 124.823 49.5273Z" fill="#FB8351" stroke="black"/>
<path d="M83.6296 24.8885H91.0893V27.841H78.9695V11.1649H83.1296V24.3885V24.8885H83.6296Z" fill="#FB8351" stroke="black"/>
<path d="M94.4939 17.1801L94.494 17.1801L94.4968 17.1774C95.6107 16.1291 97.3744 15.5566 99.8905 15.5566C102.426 15.5566 104.199 16.1296 105.312 17.1774L105.312 17.1774L105.317 17.1826C106.449 18.2154 107.048 19.7385 107.048 21.8361C107.048 23.9557 106.456 25.4881 105.342 26.5196C104.23 27.5505 102.447 28.1157 99.8905 28.1157C97.3544 28.1157 95.5811 27.5515 94.4678 26.5209C93.3723 25.4899 92.7877 23.957 92.7877 21.8361C92.7877 19.7363 93.3798 18.2124 94.4939 17.1801ZM99.8905 25.3553C100.819 25.3553 101.6 25.0911 102.095 24.4512C102.585 23.8415 102.778 22.933 102.778 21.8361C102.778 20.757 102.584 19.8605 102.098 19.2521C101.605 18.5934 100.824 18.3169 99.8905 18.3169C98.9688 18.3169 98.1978 18.5974 97.7074 19.2568C97.2423 19.8639 97.0576 20.758 97.0576 21.8361C97.0576 22.9323 97.2422 23.8382 97.7101 24.4465C98.2029 25.0872 98.9737 25.3553 99.8905 25.3553Z" fill="#FB8351" stroke="black"/>
<path d="M113.624 21.4695L113.613 21.4591C113.163 21.0358 112.989 20.4193 112.989 19.7227C112.989 18.9963 113.169 18.3507 113.662 17.9396C114.142 17.5358 114.833 17.3837 115.63 17.3837C116.462 17.3837 117.19 17.5285 117.647 17.9587L113.624 21.4695ZM113.624 21.4695L113.635 21.4792M113.624 21.4695L113.635 21.4792M113.635 21.4792C114.104 21.8695 114.812 22.0068 115.63 22.0068C116.457 22.0068 117.179 21.8727 117.635 21.47M113.635 21.4792L117.635 21.47M117.635 21.47C118.101 21.0591 118.271 20.4288 118.271 19.7227C118.271 19.0132 118.099 18.3846 117.647 17.9588L117.635 21.47ZM113.141 32.5909L113.141 32.5907L113.129 32.5901C112.396 32.5544 111.701 32.483 111.045 32.3766C110.57 32.2975 110.162 32.2098 109.817 32.1148V29.8598C110.165 29.9498 110.537 30.0286 110.934 30.0966L110.936 30.0969C111.609 30.209 112.291 30.2931 112.982 30.3492L112.982 30.3492C113.67 30.4049 114.306 30.4332 114.889 30.4332C115.866 30.4332 116.66 30.3785 117.256 30.2606C117.56 30.2108 117.845 30.1316 118.066 29.9957C118.306 29.8487 118.518 29.6008 118.518 29.2469C118.518 29.0687 118.48 28.8791 118.373 28.7075C118.263 28.5319 118.105 28.4138 117.929 28.3436L117.908 28.3353L117.887 28.3289C117.624 28.2499 117.206 28.2254 116.7 28.2254H113.269C111.979 28.2254 111.048 28.0211 110.424 27.6644C109.867 27.3194 109.597 26.8348 109.597 26.1454C109.597 25.6396 109.735 25.2406 109.99 24.9191C110.25 24.5915 110.661 24.3076 111.269 24.0913L112.359 23.703L111.329 23.1753C110.643 22.8237 110.173 22.3975 109.884 21.9102L109.884 21.9102C109.595 21.4228 109.433 20.7767 109.433 19.9423C109.433 18.3828 109.949 17.3212 110.918 16.6488C111.953 15.9426 113.494 15.5566 115.602 15.5566C116.034 15.5566 116.524 15.5912 117.075 15.6623L117.083 15.6633L117.091 15.6641C117.656 15.7188 118.044 15.7716 118.27 15.82L118.322 15.8311H118.375H122.962L122.887 17.9601H121.641H120.615L121.247 18.7682C121.499 19.0898 121.635 19.4898 121.635 19.9972C121.635 21.2288 121.276 22.1528 120.601 22.8276C119.966 23.4626 118.906 23.8339 117.304 23.8339C117.083 23.8339 116.844 23.8256 116.585 23.8086C116.309 23.7721 116.049 23.7443 115.806 23.7255L115.764 23.7223L115.722 23.7261C115.287 23.7657 114.893 23.8462 114.548 23.9755C114.345 24.0518 114.15 24.1693 114.004 24.3508C113.853 24.5394 113.785 24.7622 113.785 24.9926C113.785 25.1604 113.823 25.3366 113.926 25.4963C114.029 25.6565 114.174 25.7651 114.329 25.8338L114.351 25.8435L114.374 25.8511C114.613 25.9308 114.903 25.9592 115.218 25.9592H118.21C119.471 25.9592 120.399 26.2527 121.052 26.7811C121.677 27.2873 122.019 28.0435 122.019 29.1372C122.019 30.2245 121.533 31.0558 120.483 31.6698L120.483 31.6698L120.478 31.6727C119.406 32.3155 117.67 32.6719 115.191 32.6719C114.564 32.6719 113.881 32.6451 113.141 32.5909Z" fill="#FB8351" stroke="black"/>
<path d="M126.497 17.18L126.498 17.1801L126.5 17.1774C127.614 16.1291 129.379 15.5566 131.895 15.5566C134.43 15.5566 136.202 16.1296 137.316 17.1774L137.316 17.1775L137.321 17.1826C138.453 18.2154 139.052 19.7384 139.052 21.8361C139.052 23.9557 138.459 25.4881 137.346 26.5196C136.233 27.5506 134.451 28.1157 131.895 28.1157C129.358 28.1157 127.585 27.5515 126.472 26.5209C125.376 25.4899 124.792 23.957 124.792 21.8361C124.792 19.7363 125.384 18.2123 126.497 17.18ZM129.713 24.4462L129.714 24.4469C130.207 25.0872 130.978 25.3553 131.895 25.3553C132.823 25.3553 133.603 25.0908 134.099 24.4513C134.588 23.8418 134.783 22.9336 134.783 21.8361C134.783 20.7565 134.588 19.8602 134.102 19.2519C133.608 18.5937 132.828 18.3169 131.895 18.3169C130.973 18.3169 130.202 18.5976 129.711 19.2567C129.246 19.8638 129.062 20.7579 129.062 21.8361C129.062 22.9322 129.246 23.838 129.713 24.4462Z" fill="#FB8351" stroke="black"/>
<path d="M141.222 15.8306H146.892V27.8406H142.731V19.0909V18.5909H142.231H140.9L141.222 15.8306ZM142.32 13.1014V10.3685H146.892V13.1014H142.32Z" fill="white" stroke="black"/>
<path d="M154.527 27.8745V33.7697H150.367V15.8311H153.946L154.102 16.4892L154.283 17.2551L154.9 16.7655C155.387 16.3784 155.914 16.0856 156.483 15.885L156.483 15.885L156.491 15.8822C157.065 15.6691 157.745 15.5566 158.541 15.5566C160.398 15.5566 161.749 16.0286 162.671 16.9017L162.671 16.9018L162.678 16.9077C163.585 17.7374 164.106 19.2195 164.106 21.5067C164.106 23.7568 163.566 25.3815 162.565 26.4647C161.562 27.5506 160.168 28.1155 158.321 28.1155C157.084 28.1155 156.074 27.8805 155.268 27.4365L154.527 27.0286V27.8745ZM154.698 19.2089L154.527 19.3583V19.5854V24.1966V24.4473L154.728 24.5973C155.053 24.8399 155.386 25.0297 155.73 25.1587C156.097 25.2962 156.526 25.3553 157.003 25.3553C157.888 25.3553 158.622 25.0338 159.132 24.3615C159.631 23.7024 159.837 22.7473 159.837 21.589C159.837 20.4932 159.65 19.5803 159.118 19.0441C158.622 18.5267 157.9 18.3169 157.058 18.3169C156.167 18.3169 155.374 18.6183 154.698 19.2089Z" fill="white" stroke="black"/>
<path d="M168.409 27.8754L168.409 27.8754C169.367 28.0351 170.391 28.1155 171.483 28.1155C173.544 28.1155 175.01 27.7632 175.951 27.1306C176.891 26.4928 177.351 25.6241 177.351 24.4711C177.351 23.7908 177.239 23.2568 177.043 22.8482L177.04 22.8418L177.037 22.8353C176.867 22.4531 176.553 22.103 176.052 21.7957L176.047 21.7921L176.047 21.792C175.552 21.479 174.833 21.1745 173.866 20.8883L173.858 20.8861L173.858 20.886C172.985 20.613 172.292 20.4154 171.778 20.2909L171.774 20.2901L171.774 20.29C171.484 20.2176 171.211 20.1095 171.001 19.9377C170.775 19.7519 170.626 19.4911 170.626 19.1737C170.626 18.8653 170.778 18.6137 171.016 18.4514C171.227 18.3082 171.491 18.2421 171.753 18.2107L168.409 27.8754ZM168.409 27.8754L168.402 27.8742C167.627 27.7573 167.003 27.6132 166.521 27.4472M168.409 27.8754L166.521 27.4472M166.521 27.4472V24.8248C167.032 25.0037 167.595 25.1496 168.206 25.2644L168.208 25.2647C169.123 25.4326 169.915 25.52 170.576 25.52C171.239 25.52 171.755 25.5019 172.113 25.4621M166.521 27.4472L172.113 25.4621M172.113 25.4621C172.113 25.4622 172.112 25.4623 172.112 25.4623L172.059 24.9651L172.115 25.462C172.114 25.462 172.114 25.4621 172.113 25.4621ZM169.561 22.5988C168.407 22.1903 167.595 21.7269 167.082 21.23L167.082 21.23C166.623 20.7847 166.357 20.1089 166.357 19.1187C166.357 17.9757 166.795 17.1378 167.674 16.5408L167.674 16.5409L167.679 16.5374C168.578 15.9118 170.062 15.5566 172.223 15.5566C173.04 15.5566 173.886 15.6187 174.76 15.7437L174.76 15.7437C175.447 15.8419 176.007 15.9493 176.445 16.0637V18.5905C176.055 18.4658 175.646 18.368 175.217 18.2965C174.555 18.1829 173.941 18.1248 173.377 18.1248C172.777 18.1248 172.234 18.1528 171.753 18.2107L169.561 22.5988ZM169.561 22.5988C169.56 22.5985 169.559 22.5982 169.558 22.5978L169.398 23.0712L169.564 22.5998C169.563 22.5995 169.562 22.5991 169.561 22.5988Z" fill="white" stroke="black"/>
<path d="M189.228 23.8668V15.8307H193.388V27.8406H189.494L189.416 27.2839L189.303 26.4654L188.631 26.9457C188.17 27.2746 187.587 27.5559 186.876 27.7817L186.876 27.7817L186.873 27.7827C186.201 28.0011 185.412 28.1151 184.501 28.1151C183.08 28.1151 182.031 27.716 181.287 26.9718C180.551 26.2358 180.144 25.1201 180.144 23.5373V15.8307H184.303V23.1257C184.303 23.7721 184.468 24.3482 184.885 24.7583C185.3 25.167 185.881 25.3274 186.532 25.3274C187.028 25.3274 187.511 25.2192 187.975 25.0082C188.429 24.8016 188.812 24.5334 189.106 24.1946L189.228 24.0536V23.8668Z" fill="white" stroke="black"/>
<path d="M208.906 16.8623C209.449 16.4719 210.065 16.1549 210.754 15.9134C211.439 15.6795 212.261 15.5566 213.226 15.5566C214.662 15.5566 215.615 15.9362 216.2 16.5959L216.2 16.5959L216.204 16.6001C216.799 17.2566 217.144 18.3191 217.144 19.8873V27.8411H213.066V20.4912C213.066 19.8684 212.946 19.2905 212.57 18.9093C212.195 18.5101 211.636 18.3718 211.029 18.3718C210.179 18.3718 209.456 18.6842 208.9 19.3075L208.744 19.4825L208.779 19.7144C208.812 19.9312 208.828 20.135 208.828 20.3265V20.3277V20.3288V20.33V20.3312V20.3324V20.3336V20.3347V20.3359V20.3371V20.3383V20.3395V20.3407V20.3419V20.343V20.3442V20.3454V20.3466V20.3478V20.349V20.3502V20.3514V20.3526V20.3538V20.355V20.3562V20.3573V20.3585V20.3597V20.3609V20.3621V20.3633V20.3645V20.3657V20.3669V20.3681V20.3693V20.3705V20.3717V20.3729V20.3741V20.3754V20.3766V20.3778V20.379V20.3802V20.3814V20.3826V20.3838V20.385V20.3862V20.3874V20.3886V20.3899V20.3911V20.3923V20.3935V20.3947V20.3959V20.3971V20.3984V20.3996V20.4008V20.402V20.4032V20.4045V20.4057V20.4069V20.4081V20.4093V20.4106V20.4118V20.413V20.4142V20.4155V20.4167V20.4179V20.4191V20.4204V20.4216V20.4228V20.4241V20.4253V20.4265V20.4277V20.429V20.4302V20.4314V20.4327V20.4339V20.4352V20.4364V20.4376V20.4389V20.4401V20.4413V20.4426V20.4438V20.4451V20.4463V20.4475V20.4488V20.45V20.4513V20.4525V20.4538V20.455V20.4563V20.4575V20.4587V20.46V20.4612V20.4625V20.4637V20.465V20.4662V20.4675V20.4688V20.47V20.4713V20.4725V20.4738V20.475V20.4763V20.4775V20.4788V20.4801V20.4813V20.4826V20.4838V20.4851V20.4864V20.4876V20.4889V20.4901V20.4914V20.4927V20.4939V20.4952V20.4965V20.4977V20.499V20.5003V20.5015V20.5028V20.5041V20.5053V20.5066V20.5079V20.5092V20.5104V20.5117V20.513V20.5143V20.5155V20.5168V20.5181V20.5194V20.5206V20.5219V20.5232V20.5245V20.5258V20.5271V20.5283V20.5296V20.5309V20.5322V20.5335V20.5348V20.536V20.5373V20.5386V20.5399V20.5412V20.5425V20.5438V20.5451V20.5463V20.5476V20.5489V20.5502V20.5515V20.5528V20.5541V20.5554V20.5567V20.558V20.5593V20.5606V20.5619V20.5632V20.5645V20.5658V20.5671V20.5684V20.5697V20.571V20.5723V20.5736V20.5749V20.5762V20.5775V20.5788V20.5801V20.5814V20.5828V20.5841V20.5854V20.5867V20.588V20.5893V20.5906V20.5919V20.5932V20.5946V20.5959V20.5972V20.5985V20.5998V20.6011V20.6025V20.6038V20.6051V20.6064V20.6077V20.6091V20.6104V20.6117V20.613V20.6143V20.6157V20.617V20.6183V20.6196V20.621V20.6223V20.6236V20.625V20.6263V20.6276V20.6289V20.6303V20.6316V20.6329V20.6343V20.6356V20.6369V20.6383V20.6396V20.641V20.6423V20.6436V20.645V20.6463V20.6476V20.649V20.6503V20.6517V20.653V20.6543V20.6557V20.657V20.6584V20.6597V20.6611V20.6624V20.6638V20.6651V20.6665V20.6678V20.6692V20.6705V20.6719V20.6732V20.6746V20.6759V20.6773V20.6786V20.68V20.6813V20.6827V20.684V20.6854V20.6868V20.6881V20.6895V20.6908V20.6922V20.6936V20.6949V20.6963V20.6976V20.699V20.7004V20.7017V20.7031V20.7045V20.7058V20.7072V20.7086V20.7099V20.7113V20.7127V20.714V20.7154V20.7168V20.7182V20.7195V20.7209V20.7223V20.7237V20.725V20.7264V20.7278V20.7292V20.7305V20.7319V20.7333V20.7347V20.7361V20.7374V20.7388V20.7402V20.7416V20.743V20.7443V20.7457V20.7471V20.7485V20.7499V20.7513V20.7527V20.7541V20.7554V20.7568V20.7582V20.7596V20.761V20.7624V20.7638V20.7652V20.7666V20.768V20.7694V20.7708V20.7722V20.7736V20.775V20.7764V20.7778V20.7792V20.7806V20.782V20.7834V20.7848V20.7862V20.7876V20.789V20.7904V20.7918V20.7932V20.7946V20.796V20.7974V20.7988V20.8002V20.8016V20.803V20.8045V20.8059V20.8073V20.8087V20.8101V20.8115V20.8129V20.8143V20.8158V20.8172V20.8186V20.82V20.8214V20.8229V20.8243V20.8257V20.8271V20.8285V20.83V20.8314V20.8328V20.8342V20.8357V20.8371V20.8385V20.8399V20.8414V20.8428V20.8442V20.8456V20.8471V20.8485V20.8499V20.8514V20.8528V20.8542V20.8557V20.8571V20.8585V20.86V20.8614V20.8628V20.8643V20.8657V20.8672V20.8686V20.87V20.8715V20.8729V20.8744V20.8758V20.8773V20.8787V20.8801V20.8816V20.883V20.8845V20.8859V20.8874V20.8888V20.8903V20.8917V20.8932V20.8946V20.8961V20.8975V20.899V20.9004V20.9019V20.9033V20.9048V20.9062V20.9077V20.9092V20.9106V20.9121V20.9135V20.915V20.9165V20.9179V20.9194V20.9208V20.9223V20.9238V20.9252V20.9267V20.9282V20.9296V20.9311V20.9326V20.934V20.9355V20.937V20.9384V20.9399V20.9414V20.9428V20.9443V20.9458V20.9473V20.9487V20.9502V20.9517V20.9532V20.9546V20.9561V20.9576V20.9591V20.9605V20.962V20.9635V20.965V20.9665V20.9679V20.9694V20.9709V20.9724V20.9739V20.9754V20.9769V20.9783V20.9798V20.9813V20.9828V20.9843V20.9858V20.9873V20.9888V20.9903V20.9917V20.9932V20.9947V20.9962V20.9977V20.9992V21.0007V21.0022V21.0037V21.0052V21.0067V21.0082V21.0097V21.0112V21.0127V27.8411H205.052V20.4088C205.052 19.8465 204.96 19.3278 204.68 18.9578C204.354 18.5113 203.805 18.3718 203.235 18.3718C202.795 18.3718 202.374 18.4885 201.976 18.7091C201.607 18.9138 201.277 19.1612 200.987 19.4519L200.841 19.5983V19.805V27.8411H196.846V15.8311H200.683L200.762 16.4391L200.868 17.2416L201.538 16.7882C202.067 16.4303 202.658 16.1385 203.314 15.9139L203.314 15.914L203.321 15.9114C203.975 15.6768 204.695 15.5566 205.486 15.5566C206.289 15.5566 206.86 15.6719 207.237 15.8606L207.238 15.8609C207.632 16.0574 207.948 16.3426 208.193 16.7258L208.478 17.1705L208.906 16.8623Z" fill="white" stroke="black"/>
<path d="M134.765 38.8513L134.765 38.8513C133.961 39.3477 133.367 40.0556 132.983 40.9942C132.59 41.952 132.386 43.0943 132.386 44.4323C132.386 45.6417 132.6 46.6757 133.011 47.5476C133.417 48.3942 134.021 49.0518 134.831 49.5297C135.647 49.9901 136.698 50.236 138.011 50.236C138.731 50.236 139.372 50.191 139.936 50.1032L139.938 50.103C140.387 50.0345 140.807 49.948 141.199 49.8437V49.4612C140.831 49.5637 140.447 49.6444 140.048 49.704C140.047 49.704 140.047 49.704 140.047 49.7041L139.973 49.2095C139.365 49.302 138.764 49.3484 138.169 49.3484C136.558 49.3484 135.375 48.9255 134.621 48.0797L134.765 38.8513ZM134.765 38.8513L134.77 38.8485C135.566 38.3453 136.627 38.0735 137.991 38.0735C138.708 38.0735 139.345 38.1247 139.906 38.2243L139.907 38.2246C140.363 38.3039 140.793 38.406 141.199 38.5303V38.9028C140.846 38.8 140.482 38.7151 140.106 38.6481C139.477 38.5229 138.82 38.461 138.131 38.461C136.924 38.461 135.905 38.6889 135.123 39.1955L134.765 38.8513Z" fill="white" stroke="black"/>
<path d="M151.567 42.5437L151.568 42.5441C152.213 43.268 152.571 44.3414 152.571 45.8391C152.571 47.3525 152.219 48.4327 151.586 49.1559C150.98 49.8377 149.952 50.2354 148.373 50.2354C146.812 50.2354 145.781 49.8396 145.158 49.1542C144.528 48.431 144.176 47.351 144.176 45.8391C144.176 44.3416 144.534 43.268 145.178 42.544C145.802 41.8444 146.828 41.4428 148.373 41.4428C149.92 41.4428 150.946 41.8446 151.567 42.5437ZM151.136 48.8352L151.136 48.8353L151.14 48.8308C151.709 48.1312 151.946 47.1001 151.946 45.8391C151.946 44.5807 151.705 43.5514 151.116 42.8621C150.517 42.131 149.552 41.8304 148.373 41.8304C147.191 41.8304 146.221 42.133 145.612 42.8621L145.611 42.8628C145.037 43.5513 144.801 44.5796 144.801 45.8391C144.801 47.1001 145.038 48.1312 145.607 48.8308L145.607 48.8308L145.611 48.8352C146.211 49.5553 147.184 49.8479 148.373 49.8479C149.562 49.8479 150.536 49.5554 151.136 48.8352Z" fill="white" stroke="black"/>
<path d="M155.558 50.0376V49.6699H156.025V50.0376H155.558Z" fill="white" stroke="black"/>
</svg>
