<svg width="295" height="59" viewBox="0 0 295 59" fill="none" xmlns="http://www.w3.org/2000/svg">
<path d="M4.81741 12.2236L4.81766 12.2236L46.7772 0.835266L46.7969 0.829941L46.816 0.823041C47.63 0.529307 48.5024 0.433958 49.3606 0.544908C50.2189 0.655858 51.0383 0.969907 51.7509 1.46099C52.4635 1.95207 53.0487 2.60603 53.4579 3.36858C53.864 4.12523 54.0851 4.96715 54.1035 5.82548L51.6181 44.4236C51.4854 46.4867 50.0662 48.1278 48.1618 48.9368C46.258 49.7456 43.9415 49.6879 42.102 48.419L2.62252 21.1861L2.34134 21.5937L2.62251 21.1861C0.796211 19.9264 0.210971 18.0116 0.628 16.2568C1.04698 14.4939 2.49066 12.8538 4.81741 12.2236Z" fill="#E9327C" stroke="black"/>
<path d="M29.7416 55.3255C29.7414 55.3253 29.7413 55.325 29.7412 55.3248L6.48309 9.84066C6.48307 9.84061 6.48304 9.84056 6.48302 9.84051C5.99331 8.88199 5.77781 7.80684 5.8603 6.73363C5.94279 5.66036 6.32008 4.63073 6.95058 3.75827C7.58107 2.88581 8.44026 2.20443 9.43341 1.78926C10.4266 1.37409 11.5151 1.24127 12.5789 1.40544C12.5789 1.40544 12.5789 1.40544 12.5789 1.40544L55.6828 8.05797C56.597 8.19907 57.4646 8.55515 58.2144 9.09693C58.9641 9.63871 59.5745 10.3507 59.9955 11.1744C60.4164 11.9981 60.6358 12.9099 60.6357 13.8349C60.6356 14.7599 60.4159 15.6717 59.9947 16.4952L59.9947 16.4952L40.1388 55.3268C40.1387 55.327 40.1386 55.3272 40.1385 55.3273C39.6473 56.2829 38.9022 57.0846 37.9851 57.6443C37.0678 58.2041 36.014 58.5002 34.9394 58.5C33.8647 58.4998 32.811 58.2033 31.8939 57.6431C30.9771 57.0831 30.2324 56.2812 29.7416 55.3255Z" fill="#1DACE3" stroke="black"/>
<path d="M7.35551 11.5362L33.0397 4.5624L53.9699 7.79281L52.4654 31.2222L43.3425 49.0628C42.9049 48.8985 42.488 48.6823 42.101 48.4184C42.1006 48.4182 42.1003 48.4179 42.0999 48.4176L17.5477 31.4754L7.35551 11.5362Z" fill="#3A68B8" stroke="black"/>
<path d="M164.883 15.1747C164.221 14.5129 163.845 13.6182 163.835 12.6824C163.835 11.9835 164.043 11.3003 164.431 10.7192C164.82 10.1374 165.373 9.68385 166.019 9.41605C166.666 9.14826 167.377 9.07819 168.063 9.21472C168.75 9.35124 169.38 9.68822 169.875 10.183C170.37 10.6779 170.707 11.3083 170.843 11.9946C170.98 12.681 170.91 13.3924 170.642 14.0389C170.374 14.6854 169.921 15.238 169.339 15.6268C168.758 16.0151 168.075 16.2226 167.376 16.2231C166.44 16.2129 165.545 15.8366 164.883 15.1747ZM164.508 19.1971H170.24V40.6304H164.508V19.1971Z" fill="white" stroke="black"/>
<path d="M199.311 29.8876L199.31 29.9139L199.311 29.9402C199.386 31.3572 199.18 32.775 198.705 34.112C198.229 35.4491 197.495 36.679 196.542 37.731C195.59 38.7831 194.44 39.6365 193.156 40.2422C191.873 40.8479 190.483 41.194 189.065 41.2605L189.065 41.2605L189.062 41.2607C187.888 41.3246 186.715 41.1266 185.627 40.6813C184.54 40.2359 183.565 39.5542 182.773 38.6855L181.903 37.7315V39.0223V49.6048H176.174V19.1972H181.903V20.8055V22.0956L182.773 21.1424C183.565 20.2741 184.54 19.5928 185.628 19.1478C186.715 18.7028 187.888 18.5052 189.062 18.5693L189.066 18.5695C190.483 18.6357 191.873 18.9815 193.156 19.587C194.439 20.1925 195.59 21.0457 196.542 22.0976C197.495 23.1495 198.229 24.3792 198.705 25.7161C199.18 27.053 199.386 28.4707 199.311 29.8876ZM184.512 34.9152C185.467 35.5483 186.586 35.887 187.731 35.8891C188.519 35.923 189.306 35.7907 190.039 35.5006C190.776 35.2091 191.444 34.7651 191.997 34.1975C192.55 33.6299 192.978 32.9517 193.25 32.2074C193.522 31.4667 193.634 30.6771 193.58 29.8901C193.549 28.7454 193.183 27.635 192.526 26.697C191.866 25.7559 190.944 25.0302 189.875 24.6106C188.805 24.191 187.635 24.0962 186.512 24.3381C185.389 24.5799 184.362 25.1477 183.56 25.9704C182.758 26.7931 182.216 27.834 182.002 28.963C181.789 30.092 181.913 31.2589 182.36 32.3176C182.806 33.3764 183.555 34.2799 184.512 34.9152Z" fill="white" stroke="black"/>
<path d="M211.227 41.2556H211.25C213.607 41.2556 215.831 40.7193 217.449 39.6001C219.046 38.4959 220.083 36.8078 220.083 34.3966C220.083 32.4481 219.441 31.1272 218.503 30.178C217.549 29.2126 216.256 28.5985 214.905 28.1418C214.233 27.9144 213.557 27.7296 212.912 27.5583C212.824 27.535 212.737 27.512 212.651 27.4891C212.105 27.3449 211.58 27.2062 211.121 27.0587C210.595 26.8898 210.102 26.6938 209.734 26.4301C209.353 26.1566 209.052 25.7674 209.053 25.2303M211.227 41.2556L211.437 23.9744M211.227 41.2556L211.205 41.2576C209.347 41.4257 207.481 41.0325 205.849 40.1288C204.356 39.3021 203.122 38.0831 202.277 36.6075L207.175 33.8198C207.487 34.4935 207.974 35.0758 208.591 35.5026C209.374 36.0449 210.319 36.3038 211.268 36.2368C212.104 36.235 212.807 36.1078 213.318 35.8089C213.87 35.4867 214.171 34.9776 214.171 34.346C214.171 33.8156 213.862 33.4331 213.487 33.1652C213.122 32.9038 212.631 32.7029 212.105 32.5267C211.634 32.3691 211.096 32.219 210.535 32.0628C210.461 32.0423 210.388 32.0217 210.313 32.0009C209.667 31.8204 208.99 31.6269 208.316 31.3939C206.961 30.9257 205.664 30.313 204.708 29.3812C203.769 28.4663 203.134 27.2208 203.134 25.4158C203.134 23.1298 204.091 21.4369 205.585 20.3019C207.093 19.1554 209.18 18.5591 211.437 18.5591H211.445L211.453 18.5588C213.117 18.5066 214.766 18.9016 216.226 19.7027C217.533 20.42 218.647 21.4394 219.476 22.6729M211.227 41.2556L219.476 22.6729M209.053 25.2303C209.053 24.6499 209.321 24.1801 209.785 23.8777C210.222 23.5923 210.802 23.4744 211.437 23.4744M209.053 25.2303C209.053 25.2301 209.053 25.2299 209.053 25.2297L209.553 25.231H209.053C209.053 25.2308 209.053 25.2305 209.053 25.2303ZM211.437 23.4744V23.9744M211.437 23.4744C211.437 23.4744 211.436 23.4744 211.436 23.4744L211.437 23.9744M211.437 23.4744C212.175 23.4728 212.897 23.6884 213.513 24.0945C213.977 24.4001 214.366 24.8034 214.653 25.2737M211.437 23.9744C212.077 23.9728 212.704 24.1598 213.238 24.512C213.633 24.772 213.965 25.1135 214.212 25.5114L214.653 25.2737M214.653 25.2737L219.476 22.6729M214.653 25.2737C214.74 25.4156 214.817 25.5636 214.885 25.7168L219.476 22.6729" fill="white" stroke="black"/>
<path d="M238.958 30.9456V19.1968H244.679V40.6301H238.949V39.0175V37.6391L238.066 38.697C237.339 39.567 236.416 40.2525 235.374 40.6974C234.331 41.1422 233.198 41.3338 232.067 41.2563L232.05 41.2551H232.032C229.887 41.2551 227.923 40.4919 226.496 39.0329C225.071 37.5758 224.144 35.3862 224.144 32.4662V19.1968H229.873V31.4592C229.814 32.0573 229.883 32.6613 230.077 33.2303C230.274 33.808 230.595 34.3358 231.017 34.7769C231.439 35.218 231.952 35.5618 232.52 35.7844C233.084 36.0052 233.688 36.1015 234.292 36.0669C235.615 36.064 236.799 35.6753 237.651 34.8C238.505 33.9225 238.958 32.6257 238.958 30.9456Z" fill="white" stroke="black"/>
<path d="M283.252 27.3538V40.6298H277.522V27.9392C277.522 26.7454 277.236 25.6956 276.597 24.9365C275.946 24.1639 274.987 23.7597 273.792 23.7597C272.544 23.7597 271.517 24.2025 270.814 25.059C270.123 25.9013 269.793 27.0833 269.793 28.4784V40.6298H264.061V27.9392C264.061 26.7457 263.775 25.6958 263.136 24.9366C262.486 24.1638 261.527 23.7597 260.331 23.7597C259.083 23.7597 258.057 24.2026 257.354 25.0589C256.662 25.9011 256.332 27.0831 256.332 28.4784V40.6298H250.602V19.1965H256.343V20.7519V22.233L257.24 21.055C257.887 20.2062 258.736 19.5331 259.71 19.097C260.684 18.661 261.752 18.476 262.816 18.559L262.848 18.5615L262.879 18.5599C263.945 18.5078 265.006 18.7327 265.959 19.2125C266.912 19.6924 267.724 20.4109 268.317 21.2981L268.711 21.8879L269.134 21.3187C269.829 20.3831 270.751 19.6393 271.812 19.1566C272.873 18.674 274.039 18.4684 275.201 18.559L275.22 18.5605L275.239 18.5605C277.689 18.5647 279.678 19.438 281.058 20.9454C282.442 22.457 283.252 24.6492 283.252 27.3538Z" fill="white" stroke="black"/>
<path d="M293.949 13.5627C293.949 16.0454 291.937 18.0581 289.454 18.0581C286.971 18.0581 284.958 16.0454 284.958 13.5627C284.958 11.0799 286.971 9.06723 289.454 9.06723C291.937 9.06723 293.949 11.0799 293.949 13.5627Z" fill="white" stroke="black"/>
<path d="M93.8809 41.2596L93.8755 41.2596C92.3799 41.2756 90.8961 40.9935 89.5108 40.4296C88.1254 39.8657 86.8663 39.0314 85.807 37.9754C84.7478 36.9195 83.9095 35.663 83.3412 34.2795C82.773 32.8959 82.4861 31.413 82.4974 29.9173L81.9975 29.9136L82.4974 29.912C82.4903 27.659 83.1519 25.4547 84.3984 23.578C85.6449 21.7012 87.4203 20.2366 89.4997 19.3695C91.5791 18.5025 93.8691 18.2719 96.0796 18.7071C98.2901 19.1423 100.322 20.2236 101.917 21.8142C103.513 23.4047 104.601 25.433 105.043 27.6421C105.485 29.8513 105.262 32.142 104.401 34.2241C103.541 36.3062 102.082 38.0862 100.209 39.3386C98.3361 40.5911 96.1338 41.2596 93.8809 41.2596ZM99.5561 29.8873L99.5312 29.4136H99.5141C99.4082 28.4747 99.0687 27.5745 98.5231 26.7969C97.8838 25.8856 96.9899 25.183 95.9534 24.7771C94.9169 24.3712 93.7837 24.2799 92.6955 24.5146C91.6073 24.7494 90.6126 25.2998 89.8356 26.097C89.0586 26.8941 88.5339 27.9027 88.3272 28.9965C88.1205 30.0904 88.2408 31.2209 88.6732 32.2466C89.1057 33.2724 89.8309 34.1479 90.7583 34.7636C91.6838 35.378 92.7696 35.7066 93.8803 35.7083C94.6419 35.729 95.3996 35.5922 96.1059 35.3065C96.8144 35.0198 97.4559 34.5895 97.9898 34.0426C98.5237 33.4958 98.9385 32.8442 99.2081 32.129C99.4777 31.4139 99.5962 30.6506 99.5561 29.8873ZM126.548 20.979V19.1903H132.106V40.0035C132.106 43.6259 130.701 46.1584 128.612 47.7973C126.507 49.4494 123.664 50.225 120.762 50.225H120.743L120.724 50.2264C118.716 50.378 116.704 49.9737 114.91 49.0578C113.269 48.22 111.868 46.9837 110.834 45.4656L115.68 42.6626C116.187 43.481 116.896 44.1585 117.744 44.627C118.73 45.172 119.857 45.4084 120.978 45.3062C121.696 45.3956 122.426 45.3269 123.115 45.1048C123.824 44.8767 124.472 44.4923 125.012 43.9801C125.552 43.4679 125.97 42.841 126.236 42.1456C126.499 41.4568 126.605 40.7182 126.548 39.9834V37.9393V36.538L125.661 37.6228C124.922 38.5263 123.981 39.2442 122.915 39.7188C121.849 40.1934 120.686 40.4115 119.52 40.3557L119.52 40.3556L119.512 40.3554C116.681 40.2674 113.995 39.0808 112.023 37.047C110.052 35.0132 108.949 32.2918 108.949 29.4591C108.949 26.6265 110.052 23.9051 112.023 21.8713C113.995 19.8374 116.681 18.6509 119.512 18.5629V18.563L119.52 18.5626C120.686 18.5068 121.849 18.7249 122.915 19.1995C123.981 19.6741 124.922 20.392 125.661 21.2955L126.548 22.3803V20.979ZM136.917 29.8982L136.917 29.8966C136.91 27.6436 137.572 25.4393 138.818 23.5625C140.065 21.6858 141.84 20.2212 143.919 19.3541C145.999 18.4871 148.289 18.2565 150.499 18.6917C152.71 19.1269 154.741 20.2082 156.337 21.7988C157.933 23.3893 159.02 25.4176 159.463 27.6267C159.905 29.8359 159.681 32.1266 158.821 34.2087C157.96 36.2908 156.501 38.0708 154.628 39.3232C152.756 40.5757 150.553 41.2442 148.3 41.2442L148.295 41.2442C146.801 41.2602 145.318 40.9785 143.934 40.4155C142.549 39.8525 141.291 39.0196 140.232 37.9652C139.173 36.9108 138.334 35.6561 137.765 34.2743C137.196 32.8924 136.908 31.4111 136.917 29.9167V29.9136L136.917 29.8982ZM153.968 29.8982H153.968L153.967 29.8854C153.939 28.7719 153.583 27.6916 152.943 26.7795C152.304 25.8675 151.41 25.1643 150.373 24.7579C149.336 24.3515 148.202 24.26 147.113 24.4947C146.024 24.7295 145.029 25.2802 144.251 26.0778C143.474 26.8754 142.949 27.8847 142.742 28.9791C142.536 30.0736 142.656 31.2048 143.089 32.231C143.522 33.2573 144.248 34.1331 145.176 34.7489C146.102 35.3634 147.189 35.6917 148.3 35.6929C149.06 35.7122 149.815 35.5749 150.519 35.2895C151.225 35.0032 151.865 34.5742 152.397 34.0294C152.93 33.4845 153.344 32.8355 153.614 32.123C153.883 31.4145 154.003 30.6584 153.968 29.9016V29.8982ZM71.9542 8.87811H77.6859V40.6302H71.9542V8.87811ZM126.557 29.464C126.602 28.2857 126.295 27.1206 125.676 26.1171C125.053 25.1096 124.144 24.3111 123.065 23.8245C121.985 23.3379 120.785 23.1853 119.618 23.3864C118.451 23.5875 117.37 24.133 116.516 24.9528C115.661 25.7727 115.072 26.8294 114.823 27.9871C114.574 29.1448 114.676 30.3505 115.118 31.4492C115.56 32.548 116.32 33.4896 117.301 34.1528C118.277 34.8129 119.427 35.1674 120.605 35.1713C121.376 35.2231 122.15 35.1142 122.876 34.8514C123.609 34.5867 124.277 34.1716 124.839 33.6329C125.402 33.0942 125.845 32.4438 126.14 31.7236C126.434 31.0074 126.576 30.2378 126.557 29.464Z" fill="white" stroke="black"/>
</svg>
