<svg width="213" height="59" viewBox="0 0 213 59" fill="none" xmlns="http://www.w3.org/2000/svg">
<path d="M112.316 13.5155L100.219 25.6121C97.1375 21.0258 97.6243 14.7537 101.679 10.6992L101.679 10.6992L105.589 6.78864C105.589 6.78863 105.589 6.78862 105.589 6.78862C107.447 4.93118 110.458 4.93118 112.316 6.78862C114.174 8.64622 114.174 11.6579 112.316 13.5155Z" fill="#4F9E91" stroke="black"/>
<path d="M122.774 35.0255L122.774 35.0256C124.632 36.883 124.632 39.8947 122.774 41.7522L122.774 41.7523C120.917 43.6097 117.905 43.6099 116.048 41.7522L115.726 42.0736L116.048 41.7522L103.951 29.6557C108.537 26.5738 114.809 27.0604 118.864 31.1149C118.864 31.1149 118.864 31.1149 118.864 31.1149L122.774 35.0255Z" fill="#EBE1C5" stroke="black"/>
<path d="M94.537 52.2109L94.537 52.2109C92.6796 54.0685 89.6678 54.0685 87.8104 52.2109L87.8103 52.2109C85.9527 50.3533 85.9527 47.3417 87.8103 45.4841L99.9068 33.3876C102.989 37.9738 102.502 44.2459 98.4476 48.3003L98.4476 48.3003L94.537 52.2109Z" fill="#EBCC6E" stroke="black"/>
<path d="M77.3522 23.9731C75.4946 22.1155 75.4946 19.1038 77.3522 17.2463C79.2098 15.3887 82.2214 15.3887 84.079 17.2463L96.1756 29.3429C91.5894 32.4248 85.3172 31.9381 81.2628 27.8837L77.3522 23.9731Z" fill="#ED834E" stroke="black"/>
<path d="M107.458 54.2227C105.423 54.2227 103.685 52.9437 103.006 51.1445C105.7 48.0448 107.089 44.2053 107.176 40.3434L112.215 45.3824V49.4662C112.215 52.0931 110.085 54.2227 107.458 54.2227Z" fill="#ED834E" stroke="black"/>
<path d="M80.0968 41.6512H80.0968C77.4698 41.6514 75.3402 39.5217 75.3402 36.8947C75.3402 34.8593 76.6192 33.1211 78.4184 32.4425C81.518 35.1359 85.3575 36.5257 89.2195 36.6124L84.1807 41.6512H80.0968Z" fill="#4F9E91" stroke="black"/>
<path d="M121.708 26.5574C118.609 23.864 114.769 22.4743 110.907 22.3874L115.946 17.3485H120.03C122.657 17.3485 124.787 19.4783 124.787 22.1052C124.787 24.1407 123.508 25.8788 121.708 26.5574Z" fill="#EBCC6E" stroke="black"/>
<path d="M87.9117 13.617V9.53318C87.9117 6.90619 90.0413 4.77649 92.6682 4.77649C94.7038 4.77649 96.4418 6.05557 97.1204 7.85483C94.427 10.9544 93.0374 14.7939 92.9506 18.656L87.9117 13.617Z" fill="#EBE1C5" stroke="black"/>
<path d="M83.635 12.035L83.0086 11.8714C80.0057 11.0868 76.6799 11.8713 74.3282 14.223C70.8004 17.7508 70.8004 23.4704 74.3282 26.9982L75.6392 28.3092L76.097 28.767L75.5384 29.0942C72.8602 30.6628 71.0634 33.5693 71.0634 36.8949C71.0634 41.8839 75.1079 45.9283 80.0968 45.9283H81.9509H82.5983L82.4347 46.5547C81.6501 49.5576 82.4346 52.8834 84.7863 55.2349L84.4402 55.581L84.7863 55.2349C88.314 58.7627 94.0337 58.7627 97.5615 55.2349L101.438 51.358L101.472 51.3245L83.635 12.035ZM83.635 12.035V11.3876V9.5334C83.635 4.54442 87.6794 0.5 92.6684 0.5C95.8567 0.5 98.6597 2.15145 100.268 4.64771M83.635 12.035L100.268 4.64771M100.268 4.64771L97.9474 6.96827C97.9195 6.99616 97.8917 7.02413 97.8641 7.05216C96.9375 5.1153 94.9598 3.77686 92.6684 3.77686C89.4892 3.77686 86.9119 6.35415 86.9119 9.5334V13.8246V14.0332L87.0601 14.1799L87.0818 14.2015L87.1034 14.223L87.1052 14.2247L93.1141 20.2336L94.0323 21.1518L93.967 19.8549C93.7464 15.4735 95.3091 11.021 98.6547 7.67538L102.565 3.76477C106.093 0.236991 111.813 0.237001 115.34 3.76476L115.691 3.41409L115.34 3.76477C117.692 6.11642 118.477 9.44223 117.692 12.4453L117.528 13.0717H118.176H120.03C125.018 13.0717 129.063 17.1162 129.063 22.1051C129.063 25.4307 127.266 28.3372 124.589 29.9058L124.031 30.2331L124.488 30.6908L125.799 32.0016L125.799 32.0017C129.327 35.5293 129.327 41.2489 125.799 44.7767C122.271 48.3045 116.551 48.3045 113.023 44.7767L107.013 38.7661L106.094 37.8479L106.16 39.1448C106.38 43.5261 104.818 47.9788 101.472 51.3244L100.268 4.64771ZM102.262 51.9476C103.189 53.8845 105.167 55.2231 107.458 55.2231C110.638 55.2231 113.215 52.6459 113.215 49.4666V46.2823C113.674 46.6434 114.157 46.9589 114.659 47.2288C114.832 47.3223 115.008 47.4102 115.186 47.4927C115.612 47.6901 116.048 47.8561 116.492 47.9906V49.4666C116.492 54.4556 112.447 58.5 107.458 58.5C104.27 58.5 101.467 56.8484 99.8586 54.3521L102.146 52.065L102.179 52.0317C102.179 52.0317 102.179 52.0316 102.179 52.0316C102.18 52.0307 102.181 52.0298 102.182 52.0289C102.209 52.0019 102.236 51.9748 102.262 51.9476ZM109.33 22.5505L108.412 23.4686L109.709 23.4034C113.822 23.1965 117.998 24.561 121.261 27.4964L121.472 27.6867L121.744 27.6021C124.085 26.8726 125.787 24.6881 125.787 22.1051C125.787 18.9258 123.21 16.3486 120.03 16.3486H115.739H115.532L115.385 16.495C115.376 16.5043 115.369 16.5109 115.363 16.5168C115.356 16.524 115.35 16.53 115.342 16.5382L115.34 16.54L109.33 22.5505ZM84.3878 42.6514H84.5963L84.743 42.5032C84.7583 42.4878 84.7715 42.4745 84.7845 42.4616L84.7863 42.4599L90.7968 36.4492L91.715 35.531L90.4181 35.5963C86.3049 35.8034 82.1292 34.4387 78.8659 31.5036L78.706 31.3597L78.7069 31.3587C78.5487 31.2124 78.3926 31.0624 78.2388 30.9086L77.3853 30.0551V31.2622V31.2623V31.4694L77.5317 31.6159C77.5596 31.6438 77.5876 31.6716 77.6156 31.6992C75.6787 32.6258 74.3402 34.6035 74.3402 36.8949C74.3402 40.0742 76.9176 42.6514 80.0968 42.6514H84.3878ZM113.023 6.08178L112.67 6.43533L113.023 6.08176C110.775 3.83381 107.13 3.83381 104.882 6.08176L105.236 6.43533L104.882 6.08178L100.972 9.99238L101.325 10.3459L100.972 9.99239C96.4196 14.5446 96.0138 21.6719 99.7535 26.6838L100.099 27.147L100.508 26.7383L113.023 14.2228C115.271 11.9747 115.271 8.3299 113.023 6.08178ZM119.571 30.4081L119.226 30.753L119.571 30.4081C115.019 25.856 107.891 25.4503 102.879 29.1899L102.416 29.5356L102.825 29.9442L115.34 42.4597C117.588 44.7077 121.234 44.7079 123.481 42.4598C125.729 40.2116 125.729 36.5668 123.481 34.3187C123.481 34.3187 123.481 34.3187 123.481 34.3186L119.571 30.4081ZM87.1033 52.9179L87.4437 52.5775L87.1033 52.9179C89.3514 55.166 92.9962 55.166 95.2443 52.9179L99.1549 49.0073C103.707 44.4553 104.113 37.3278 100.373 32.3159L100.027 31.8527L99.6188 32.2614L87.1033 44.7769L87.4568 45.1304L87.1033 44.7769C84.8553 47.025 84.8553 50.6698 87.1033 52.9179ZM76.6452 16.54L76.6452 16.54C74.3973 18.7881 74.3973 22.4329 76.6452 24.681L76.6452 24.681L80.5558 28.5916L80.8952 28.2522L80.5558 28.5916C85.108 33.1437 92.2353 33.5495 97.2472 29.8098L97.7104 29.4641L97.3018 29.0555L84.7863 16.54L84.7863 16.54C82.5381 14.292 78.8934 14.292 76.6452 16.54Z" fill="#3D3A2C" stroke="black"/>
<path d="M4.67521 34.3057H12.205V37.2414H0.5V19.7781H4.17521V33.8057V34.3057H4.67521Z" fill="white" stroke="black"/>
<path d="M17.2885 25.9895L17.2886 25.9895L17.294 25.9868C18.3931 25.4454 19.6885 25.1666 21.1937 25.1666C22.6989 25.1666 23.9942 25.4454 25.0933 25.9868L25.0933 25.9868L25.0988 25.9895C26.2002 26.5154 27.031 27.2461 27.61 28.1792L27.6099 28.1792L27.6154 28.1878C28.209 29.1021 28.5121 30.1676 28.5121 31.402C28.5121 32.6365 28.209 33.7124 27.6133 34.6462L27.6121 34.6482C27.0331 35.5648 26.201 36.2977 25.096 36.8425C23.9961 37.3672 22.6997 37.6376 21.1937 37.6376C19.6877 37.6376 18.3912 37.3672 17.2913 36.8425C16.1871 36.2981 15.3453 35.5652 14.7482 34.6472C14.17 33.7136 13.8752 32.6372 13.8752 31.402C13.8752 30.1654 14.1707 29.0982 14.7482 28.1835C15.3454 27.2476 16.1865 26.5157 17.2885 25.9895ZM18.5895 34.048L18.595 34.0537L18.6007 34.0593C19.2747 34.7122 20.1568 35.0189 21.1937 35.0189C22.23 35.0189 23.1073 34.7123 23.766 34.0537C24.4429 33.3768 24.7576 32.4727 24.7576 31.402C24.7576 30.3351 24.4448 29.4377 23.766 28.777C23.1089 28.1018 22.2317 27.7853 21.1937 27.7853C20.1523 27.7853 19.2683 28.1036 18.5951 28.7769C17.9328 29.4391 17.6297 30.3366 17.6297 31.402C17.6297 32.4683 17.933 33.3704 18.5895 34.048Z" fill="white" stroke="black"/>
<path d="M33.4898 40.4527C34.7751 40.9003 36.1952 41.1205 37.7443 41.1205C39.0759 41.1205 40.1557 40.8508 40.8568 40.1955C41.5694 39.5462 41.8894 38.6196 41.8894 37.5036V36.7377V35.6465L41.0629 36.359C40.6108 36.7488 40.0381 37.0627 39.3327 37.2924L39.3327 37.2924L39.3294 37.2935C38.6449 37.5217 37.9063 37.6376 37.1103 37.6376C35.844 37.6376 34.7495 37.3716 33.8123 36.8546C32.8733 36.3364 32.1391 35.6111 31.6034 34.6707C31.0869 33.7333 30.822 32.6484 30.822 31.402C30.822 30.1356 31.0879 29.0412 31.605 28.1043L31.6051 28.1042C32.1222 27.1668 32.8447 26.4527 33.7801 25.9528L33.7802 25.9528L33.786 25.9496C34.724 25.4321 35.81 25.1666 37.0575 25.1666C38.7605 25.1666 40.1296 25.6834 41.2053 26.6949L42.0478 27.4872V26.3307V25.5627H45.5382V36.8698C45.5382 38.961 44.8988 40.5211 43.6706 41.6217L43.6682 41.6239C42.4621 42.719 40.5227 43.3166 37.7443 43.3166C36.9308 43.3166 36.1072 43.2404 35.2734 43.0873C34.5939 42.9598 34.0004 42.7989 33.4898 42.607V40.4527ZM41.8581 32.6856L41.8894 32.6013V32.5114V30.2928V30.1965L41.8536 30.107C41.5682 29.3937 41.095 28.827 40.444 28.4188C39.7963 27.9952 39.0679 27.7853 38.2725 27.7853C37.2176 27.7853 36.3194 28.101 35.6293 28.7688C34.9303 29.427 34.6028 30.317 34.6028 31.3757C34.6028 32.4513 34.9294 33.3621 35.621 34.0537L35.6209 34.0537L35.6265 34.0591C36.3169 34.7286 37.2161 35.0454 38.2725 35.0454C39.0847 35.0454 39.8242 34.8358 40.475 34.4087C41.1253 33.9819 41.591 33.4045 41.8581 32.6856Z" fill="white" stroke="black"/>
<path d="M57.6086 28.777C56.9513 28.1018 56.0741 27.7853 55.0361 27.7853C53.9949 27.7853 53.1107 28.1036 52.4375 28.7769C52.4375 28.777 52.4374 28.777 52.4374 28.777C52.4374 28.777 52.4374 28.777 52.4374 28.777C51.7752 29.4391 51.4721 30.3366 51.4721 31.402C51.4721 32.4683 51.7754 33.3704 52.4319 34.048L52.4374 34.0537L52.4431 34.0593C53.1171 34.7122 53.9994 35.0189 55.0361 35.0189C56.0724 35.0189 56.9497 34.7123 57.6085 34.0537L57.6086 34.0536L57.6086 28.777ZM57.6086 28.777C57.6067 28.7751 57.6048 28.7733 57.6029 28.7714L57.255 29.1305L57.6141 28.7826C57.6122 28.7807 57.6104 28.7789 57.6086 28.777ZM51.1311 25.9895L51.1311 25.9895L51.1366 25.9868C52.2357 25.4454 53.531 25.1666 55.0361 25.1666C56.5413 25.1666 57.8366 25.4454 58.9357 25.9868L58.9357 25.9868L58.9412 25.9895C60.0426 26.5154 60.8734 27.2461 61.4525 28.1792L61.4525 28.1793L61.458 28.1877C62.0514 29.1021 62.3547 30.1676 62.3547 31.402C62.3547 32.6364 62.0514 33.7124 61.4558 34.6463L61.4546 34.6481C60.8756 35.5648 60.0434 36.2977 58.9384 36.8425C57.8385 37.3672 56.5422 37.6376 55.0361 37.6376C53.5301 37.6376 52.2337 37.3672 51.1338 36.8425C50.0296 36.298 49.1877 35.5651 48.5907 34.6472C48.0124 33.7136 47.7176 32.6372 47.7176 31.402C47.7176 30.1653 48.0132 29.0982 48.5907 28.1835C49.1878 27.2476 50.029 26.5157 51.1311 25.9895Z" fill="white" stroke="black"/>
<path d="M137.918 19.7781H141.594V37.2414H137.918V19.7781Z" fill="white" stroke="black"/>
<path d="M148.61 30.1698L148.646 30.0802C148.931 29.3678 149.403 28.8009 150.055 28.3925C150.702 27.9687 151.432 27.7588 152.227 27.7588C153.282 27.7588 154.18 28.0746 154.869 28.7425C155.57 29.4023 155.897 30.3022 155.897 31.3757C155.897 32.4512 155.569 33.357 154.872 34.0327L148.61 30.1698ZM148.61 30.1698V30.2663M148.61 30.1698V30.2663M148.61 30.2663V32.5114V32.6079M148.61 30.2663V32.6079M148.61 32.6079L148.646 32.6974M148.61 32.6079L148.646 32.6974M148.646 32.6974C148.931 33.4097 149.402 33.9833 150.05 34.4087L150.05 34.4088M148.646 32.6974L150.05 34.4088M150.05 34.4088L150.059 34.4147M150.05 34.4088L150.059 34.4147M150.059 34.4147C150.707 34.8196 151.435 35.0189 152.227 35.0189C153.283 35.0189 154.182 34.7026 154.872 34.0327L150.059 34.4147ZM148.61 36.7112V43.026H144.961V25.5627H148.452V26.3307V27.4878L149.294 26.6948C150.369 25.6834 151.738 25.1666 153.441 25.1666C154.689 25.1666 155.775 25.4321 156.713 25.9495L156.712 25.9496L156.719 25.9528C157.655 26.4526 158.376 27.1666 158.893 28.1043L158.893 28.1043L158.895 28.1075C159.411 29.0252 159.677 30.1093 159.677 31.3757C159.677 32.6221 159.412 33.7178 158.893 34.6751C158.375 35.6132 157.651 36.337 156.713 36.8546L156.713 36.8545L156.709 36.8565C155.793 37.3715 154.708 37.6376 153.441 37.6376C152.649 37.6376 151.894 37.514 151.174 37.2682L151.174 37.2681L151.167 37.2659C150.461 37.0363 149.888 36.7223 149.436 36.3326L148.61 35.6196V36.7112Z" fill="white" stroke="black"/>
<path d="M164.006 37.3294L164.006 37.3295C165.088 37.5356 166.121 37.6376 167.107 37.6376C169.05 37.6376 170.448 37.2916 171.37 36.6677C172.298 36.0331 172.736 35.215 172.736 34.1756C172.736 33.4527 172.612 32.9077 172.399 32.5103L172.394 32.501L172.389 32.4915C172.194 32.0888 171.843 31.7147 171.288 31.3819C170.728 31.0464 169.908 30.7263 168.801 30.4325L168.915 29.942C168.853 29.9249 168.702 29.8863 168.463 29.8261C168.414 30.0098 168.489 30.1664 168.534 30.2325C168.584 30.3063 168.641 30.3475 168.657 30.3589C168.681 30.3759 168.701 30.3872 168.712 30.3928C168.734 30.4044 168.751 30.4117 168.758 30.4144C168.766 30.4178 168.773 30.4203 168.777 30.4216C168.789 30.426 168.797 30.4283 168.794 30.4273C168.784 30.4245 168.754 30.4162 168.692 30.4003C168.576 30.3701 168.378 30.3201 168.097 30.2497C167.235 30.0388 166.602 29.8548 166.227 29.6969C165.79 29.5128 165.42 29.1705 165.42 28.6286C165.42 28.3809 165.496 28.1424 165.666 27.9454C165.826 27.7601 166.039 27.6455 166.259 27.5744C166.672 27.4243 167.204 27.3627 167.82 27.3627C168.627 27.3627 169.481 27.4844 170.378 27.7224C170.93 27.866 171.427 28.0359 171.864 28.2348V26.0173C171.429 25.8006 170.807 25.6065 169.973 25.4483L169.971 25.448C168.996 25.2597 168.068 25.1666 167.187 25.1666C165.356 25.1666 163.972 25.5014 162.989 26.1199L162.987 26.121L162.987 26.121C162.074 26.69 161.612 27.5421 161.612 28.7607C161.612 29.4733 161.75 30.0221 161.991 30.4358C162.238 30.8549 162.622 31.2183 163.173 31.5172C163.746 31.8279 164.552 32.1416 165.608 32.4534C166.242 32.6295 166.8 32.7978 167.282 32.9582C167.759 33.0952 168.168 33.2518 168.429 33.4512C168.74 33.6578 168.928 33.9716 168.928 34.3605C168.928 34.5855 168.866 34.8115 168.713 35.003C168.564 35.1896 168.362 35.3012 168.155 35.3658L164.006 37.3294ZM164.006 37.3294L163.998 37.3281C163.067 37.1656 162.329 36.9436 161.77 36.6732V34.3937M164.006 37.3294L161.77 34.3937M161.77 34.3937C162.357 34.6686 163.009 34.9055 163.724 35.1061L163.724 35.1062L163.734 35.1087C164.786 35.3808 165.762 35.5208 166.659 35.5208C167.282 35.5208 167.796 35.478 168.154 35.3661L161.77 34.3937Z" fill="white" stroke="black"/>
<path d="M175.447 32.855V25.5628H179.096V32.3267C179.096 33.1226 179.275 33.813 179.72 34.3061C180.175 34.8089 180.826 35.019 181.577 35.019C182.258 35.019 182.89 34.8579 183.463 34.5304C184.04 34.2003 184.506 33.7195 184.862 33.1059L184.929 32.9895V32.855V25.5628H188.578V37.2415H185.089V36.368V35.1055L184.224 36.0257C183.732 36.5496 183.135 36.9487 182.426 37.2223L182.426 37.2224C181.711 37.499 180.962 37.6378 180.176 37.6378C178.527 37.6378 177.37 37.1821 176.613 36.3506C175.851 35.4929 175.447 34.3444 175.447 32.855Z" fill="white" stroke="black"/>
<path d="M195.423 37.2414V29.7909V29.6427L195.504 29.5184C196.214 28.4255 197.125 27.7853 198.248 27.7853C198.889 27.7853 199.481 27.9386 199.85 28.3923L195.423 37.2414ZM195.423 37.2414H191.958V25.5627H195.265V26.4363V27.7009L196.129 26.7782C196.612 26.2629 197.165 25.8717 197.787 25.6003L197.787 25.6004L197.797 25.5959C198.415 25.3101 199.074 25.1666 199.779 25.1666C200.689 25.1666 201.36 25.3025 201.828 25.5364L201.828 25.5364L201.833 25.5391C202.327 25.7785 202.723 26.1357 203.026 26.622L203.36 27.1551L203.804 26.7105C204.279 26.235 204.864 25.8571 205.563 25.5807L205.563 25.5806C206.265 25.3032 206.969 25.1666 207.677 25.1666C209.276 25.1666 210.286 25.5794 210.856 26.277L210.856 26.277L210.859 26.2809C211.46 27.0031 211.799 28.0948 211.799 29.6323V37.2414H208.362V30.2928C208.362 29.5478 208.226 28.893 207.85 28.4413L195.423 37.2414ZM203.743 37.2414V30.504C203.743 29.8896 203.734 29.4439 203.718 29.1601L203.705 28.9557L203.84 28.8015C204.434 28.122 205.218 27.7853 206.146 27.7853C206.834 27.7853 207.452 27.9624 207.85 28.4412L203.743 37.2414ZM203.743 37.2414H200.306V30.1079C200.306 29.4233 200.191 28.8108 199.85 28.3924L203.743 37.2414Z" fill="white" stroke="black"/>
</svg>
